<?xml version="1.0" encoding="UTF-8"?>
<svg id="_レイヤー_1" data-name="レイヤー_1" xmlns="http://www.w3.org/2000/svg" version="1.1" viewBox="0 0 700 600">
  <!-- Generator: Adobe Illustrator 29.0.1, SVG Export Plug-In . SVG Version: 2.1.0 Build 192)  -->
  <defs>
    <style>
      .st0 {
        fill: #827c75;
      }
    </style>
  </defs>
  <g>
    <path class="st0" d="M14.1,555.2c-4.6-24.9,47-67,83.3-80.2,13.7-5-15.4,10.7-26.7,19.5-23.7,18.2-47.6,42.7-44.1,61.9,2.5,13.6,24.5,9.7,33,8.1,52.2-9.6,106.3-53.1,100.1-86.8-1-5.4-2.9-11.4-8-15.4-31.5-25.5-126,.7-134.8-47.3-11.1-60.6,98.1-161.7,165-174,11.2-2.1,22.3-2.2,33,0,15.2,3.2,22.1,11.4,23.9,21.4,6.2,33.5-42.1,92.8-59.6,96.1-10,1.8-13.2-4.8-9.8-6.4,14.3-7.2,60-64.8,54.8-92.9-2.7-14.6-14.6-15.5-27.3-13.1-68.4,12.6-175.3,113.6-164.7,171.2,9,49,132.4,4.1,143.2,62.7,8,43.5-62.1,82.3-106,90.4-20.9,3.8-52.4.8-55.3-15Z"/>
    <path class="st0" d="M213.9,457.1c-3.6-1.4-4.7-5.1-5.2-8.3-3.4-18.3,20.9-52.1,43.9-55.9,5.6-1,12-.8,16.3,1.3-1.2-3.3.4-4.4,2.6-4.8,2.6-.3,5.2.3,7.7,1.3,1.6.7,2.4,2,2.9,3.6,2.2,8.9,8.5,21.7,14,27.7,3.9,4.6,9.2,6.1,15.5,5,15.9-2.9,34.8-20.2,46.1-32.8,1.4-1.5,2.9-3.4,4.4-5.1.4-.3.5-.5,1-.4.7.3.1.8.2,1-.6,2.6-1.8,4.9-3,6.9-2.8,4.8-6.7,9.3-10.7,13.3-10.2,9.5-23.7,19.2-35.2,21.3-9,1.6-17.3-.1-26.3-5.3-6.7-3.9-12.6-14.6-16.8-23.1-11.4,20.9-19.4,32.4-29.6,45-2.6,2.9-5.6,5.6-8.7,7.8-2.4,1.7-4.7,2.7-7,3.2-3.8.7-7.8,0-11.9-1.7ZM251.2,423.6c5.7-7.2,10.5-15.7,15.6-23.9-2-1.7-4.2-2.9-7.8-2.1-16.4,3.6-39.2,40-37.1,51.7.5,3,2.9,2.2,4.2,1.3,10.9-6.9,18.8-18.9,25.1-27.1Z"/>
    <path class="st0" d="M355.3,413.6c-6-32.9,51.3-161.5,81.8-167.1,3.4-.6,8.7.5,9.4,4.2,4.2,22.7-62,111.1-71.8,125.1-3,10.6-5.8,21.3-6.6,32.3-.9,17.5,3.9,30.2,20,27.2,20.9-3.8,53.2-37,70.6-57.5,5.8-6.8,9.2-9.5,9.4-8.5.1.6-1,2.6-3.4,6-17.1,23.5-47.5,58.6-76.3,63.9-15.7,2.9-29.6-6.1-33.2-25.6ZM439.7,259.6c3.4-10.5-2-9.9-7.3-2.6-7.5,10.7-17.7,28.2-25.7,43.1-10.4,19.4-19.9,38.7-26.8,59.5,34.9-47.8,51.8-76.1,59.7-100Z"/>
    <path class="st0" d="M533.4,409.3c-2-1.7-2.2-3.9-1.6-6.3,5.3-21.4,24.5-72.9,22.8-82.5-.4-2.4-2.2-3.1-4-2.8-21.5,4-52.6,27.8-61.2,46.1-2.1,4.5-1.7,9.8-1.4,13.7.7,9.2,0,17.7-3.8,26.3-3.2,7-7.9,10.7-12.9,11.6-1.2.2-2.4.4-3.7.3-3.3-.2-6.7-1.9-9.7-4.4-1.8-1.9-3.1-4.6-3.7-7.6-.3-1.8-.3-3.7-.2-5.3.6-11.4,11.8-34.7,22.5-36.7,1.6-.3,3.1-.2,4.6.6,11.4-24.3,54.9-46.6,67.7-48.9,7.6-1.4,15.7.4,17.6,8.3,1.2,5.3.6,11-.1,16.1-2.1,14.2-9.8,33.1-17.3,57.2,27.1-30.9,39.6-47,48.7-48.7,9-1.6,13.5,5.1,16,15.2,1,4.3,2.6,8.8,4.4,13,3,7.1,5.7,8.8,10.1,8,27.6-5.7,53.3-35.1,47.8-26.9-10.3,15.5-29.3,28.9-42.3,31.3-9,1.6-25,.7-30.1-10.1-2.4-5.1-4.6-12.8-5.8-20.6-.2-2.4-1-4.1-3.8-1.8-14.1,12.1-30.5,34.7-42.1,49.2-1.5,1.9-3,3.6-4.8,5.4-3.7,3.6-10.2,3.7-13.9.5ZM481.4,373.1c-9.3,8.7-15,20.7-15.4,29.6-.1,1.5-.1,9.5,3.9,8.8,9-1.6,14.6-23.9,11.5-38.4Z"/>
  </g>
  <g>
    <path class="st0" d="M218.2,53.2c.4.7,1.1,1.2,2.2,1.4,1.1.3,2.9.4,5.2.4s.2.1.2.4,0,.4-.2.4c-1.9,0-3.4,0-4.5,0h-6.1c0,0-4.8,0-4.8,0-.8,0-2,0-3.6,0s-.2-.1-.2-.4,0-.4.2-.4c1.7,0,2.9-.1,3.7-.4.8-.2,1.3-.7,1.6-1.4.3-.7.4-1.7.4-3.1V17.8c0-1.4-.1-2.4-.4-3.1-.3-.7-.8-1.1-1.6-1.4-.8-.3-2-.4-3.7-.4s-.2-.1-.2-.4,0-.4.2-.4h3.6c2,.2,3.5.2,4.7.2s2.5,0,4-.2c.6,0,1.4,0,2.6-.1s2.2-.1,3.1-.1c4.3,0,7.8,1,10.5,2.9,2.6,1.9,4,4.9,4,8.8s-.8,5.6-2.3,7.7c-1.5,2.1-3.5,3.7-5.8,4.7-2.4,1-4.8,1.5-7.3,1.5s-2.5-.1-3.4-.4c0,0-.1-.1-.1-.4s0-.3.1-.4.2-.2.2-.1c.7.2,1.5.3,2.4.3,2.9,0,5.3-1,7.3-3,2-2,3-4.9,3-8.7s-1-6.6-2.9-8.7c-1.9-2.1-4.4-3.1-7.6-3.1s-2.7.1-3.4.3-1.2.7-1.5,1.3c-.3.7-.5,1.8-.5,3.3v32c0,1.5.2,2.6.6,3.3Z"/>
    <path class="st0" d="M276.2,51.8c.2,0,.3.1.4.4,0,.2,0,.4-.1.5l-8.5,4h-.3c-.5,0-.9-.5-1.3-1.6-.4-1.1-.6-2.6-.6-4.3-3.5,3.9-7.1,5.9-10.9,5.9s-4.2-.7-5.6-2.2c-1.4-1.5-2-3.6-2-6.4v-10.7c0-1.8-.2-3.1-.5-3.9-.3-.8-.8-1.2-1.6-1.2s-1.3.2-2.3.6h-.1c-.1,0-.2-.1-.3-.4,0-.2,0-.4.1-.4l8.1-3.7h.3c.1,0,.3,0,.5.1s.3.3.3.4v16.5c0,5.4,2,8,5.9,8s2.8-.4,4.3-1c1.4-.7,2.8-1.7,4-2.9v-12.2c0-1.8-.2-3.1-.5-3.9-.3-.8-.9-1.2-1.6-1.2s-1.3.2-2.3.6h-.1c-.1,0-.2-.1-.3-.4,0-.2,0-.4.1-.4l8-3.7h.3c.1,0,.3,0,.5.1.2.1.2.3.2.4v19.4c0,1.6.2,2.7.6,3.4.4.7,1,1.1,1.8,1.1s1.9-.3,3.6-.9h.1Z"/>
    <path class="st0" d="M299.1,29.2c1,.6,1.4,1.3,1.4,2.2s-.2,1.2-.7,1.6c-.4.4-1,.7-1.8.7s-.9,0-1.2-.3c-.3-.2-.7-.5-1.1-.8-.5-.4-.9-.7-1.2-.8-.3-.2-.8-.3-1.3-.3s-1.2.2-1.9.7c-.6.5-1.6,1.5-3,3.1v15.1c0,1.4.2,2.4.5,3,.3.7,1,1.1,1.9,1.4.9.3,2.4.4,4.3.4s.2.1.2.4,0,.4-.2.4c-1.5,0-2.8,0-3.7,0h-5.2c0,0-3.8,0-3.8,0-.7,0-1.5,0-2.7,0s-.2-.1-.2-.4,0-.4.2-.4c1.2,0,2.1-.1,2.7-.4.6-.3,1-.7,1.2-1.4.2-.7.3-1.7.3-3v-13.7c0-1.5-.2-2.7-.6-3.4-.4-.7-1-1-1.8-1s-1.9.3-3.7,1h0c-.2,0-.3-.1-.4-.3,0-.2,0-.4.1-.5l8.4-4.1h.4c.5,0,.9.5,1.4,1.5.4,1.1.7,2.4.7,4.1,1.9-2.2,3.4-3.7,4.5-4.5,1.1-.8,2.2-1.2,3.2-1.2s2,.3,3,.9Z"/>
    <path class="st0" d="M327.8,51.9c.1,0,.3,0,.4.2.1.2.1.3,0,.5-3.1,2.8-6.6,4.2-10.4,4.2s-5.1-.6-7.1-1.9-3.5-2.9-4.5-5c-1-2.1-1.5-4.3-1.5-6.7s.7-5.3,2-7.6c1.3-2.3,3.1-4.1,5.4-5.4,2.3-1.3,4.8-2,7.6-2s4.8.7,6.2,2.1c1.4,1.4,2.1,3.3,2.1,5.9s-.3,1.9-.8,1.9h-17.3c0,1.1-.1,1.9-.1,2.4,0,4.1,1,7.3,2.9,9.8,1.9,2.5,4.6,3.7,8.1,3.7s2.6-.2,3.5-.5c1-.3,2.1-.9,3.4-1.7h0ZM312.5,31.7c-1.3,1.3-2.1,3.2-2.5,5.6l12.7-.3c0-2.4-.5-4.2-1.4-5.4-1-1.2-2.3-1.9-4-1.9s-3.6.7-4.8,2Z"/>
    <path class="st0" d="M381.3,45.2c.3,0,.4.1.4.2-.4,3-.6,6.2-.6,9.4s0,.6-.2.8-.5.2-.9.2h-29.6c0,0-.1-.1-.1-.4s0-.4.1-.4c1.7,0,3-.1,3.8-.4.8-.2,1.3-.7,1.6-1.4.3-.7.4-1.7.4-3.1V17.8c0-1.4-.1-2.4-.4-3.1-.3-.7-.8-1.1-1.6-1.4-.8-.3-2.1-.4-3.8-.4s-.1-.1-.1-.4,0-.4.1-.4h28.4c.4,0,.6.2.6.6v8.8c.1.1,0,.2-.2.2s-.4,0-.4-.2c-.3-2.5-1.1-4.5-2.6-5.8-1.4-1.4-3.3-2-5.7-2h-3.8c-2.2,0-3.6.3-4.3.9-.7.6-1.1,1.8-1.1,3.5v14.3h8.1c2.3,0,4-.4,5.1-1.2,1.1-.8,1.6-2.1,1.6-3.9s.1-.1.4-.1.4,0,.4.1v5.8c0,1.4,0,2.4,0,3.1v3.5c0,0,0,.1-.3.1s-.4,0-.4-.1c0-2.1-.5-3.5-1.6-4.4-1.1-.9-2.8-1.4-5.2-1.4h-7.9v16c0,1.2.1,2.1.4,2.7.3.6.8,1,1.5,1.3.7.3,1.8.4,3.2.4h5c2.5,0,4.5-.8,6.2-2.3,1.6-1.6,2.8-3.8,3.4-6.6,0-.1.1-.2.4-.2Z"/>
    <path class="st0" d="M394,36.8c1,1,2.6,2,4.6,3.1,1.6.8,2.9,1.6,3.8,2.2.9.6,1.7,1.4,2.4,2.4.7,1,1,2.2,1,3.6,0,2.4-.9,4.4-2.7,6.1-1.8,1.7-4.2,2.5-7.4,2.5s-2.4-.2-3.5-.5c-1.1-.3-2.2-.9-3.3-1.6-.3-.2-.4-.5-.4-.8v-5.7c-.1-.1,0-.2.2-.2.3,0,.4,0,.5.2.8,2.3,2,4.1,3.5,5.4,1.5,1.3,3.2,1.9,5,1.9s2.4-.3,3.2-1c.7-.7,1.1-1.6,1.1-2.9,0-1.9-.5-3.3-1.6-4.3-1-1-2.6-2-4.7-3.1-1.6-.8-2.8-1.5-3.7-2.1-.9-.6-1.6-1.4-2.3-2.4s-.9-2.2-.9-3.6c0-2.6.9-4.5,2.8-5.8,1.9-1.3,4.2-2,6.8-2s3.6.4,5.2,1c.4.2.6.4.6.8,0,1,0,1.8,0,2.3v3c0,0-.2.1-.5.1s-.4,0-.4-.1c0-1.4-.8-2.8-2.3-4-1.6-1.2-3.2-1.8-5-1.8s-2,.3-2.7.8c-.7.6-1,1.4-1,2.7s.5,2.9,1.5,3.9Z"/>
    <path class="st0" d="M430.8,52.1c.1,0,.3.1.3.3,0,.2,0,.4,0,.5-1.7,1.4-3.3,2.4-4.7,3-1.4.6-2.9.9-4.5.9s-3.6-.5-4.9-1.4c-1.3-.9-1.9-2.4-1.9-4.5v-16.3c0-1.1,0-1.9-.3-2.5-.2-.5-.5-.9-1-1.1-.5-.2-1.3-.3-2.3-.3s-.2-.2-.2-.5,0-.5.2-.5c2,0,3.6-.5,4.8-1.5,1.2-.9,2-2.2,2.3-3.9,0-.1.2-.2.6-.2s.5,0,.5.2v5.3c2.2,0,5.4-.3,9.6-.7.1,0,.3.2.3.5,0,.3.1.7.1,1.1s0,.8-.2,1.2c-.1.4-.3.6-.5.5-2.6-.6-5.7-1-9.4-1.1v17.2c0,3.7,1.8,5.6,5.5,5.6s3.8-.7,5.6-2h.1Z"/>
    <path class="st0" d="M466.3,55.5c0,.3,0,.4-.2.4-1.2,0-2.1,0-2.7,0h-3.8c0,0-3.9,0-3.9,0-.7,0-1.5,0-2.6,0s-.2-.1-.2-.4,0-.4.2-.4c1.7,0,2.9-.3,3.4-.9.6-.6.8-1.9.8-3.9v-10.9c0-2.8-.5-4.8-1.5-6.1-1-1.3-2.6-2-4.8-2s-2.8.4-4.2,1.1c-1.4.7-2.7,1.7-3.9,3v14.9c0,2,.3,3.3.8,3.9.6.6,1.7.9,3.5.9s.2.1.2.4,0,.4-.2.4c-1.2,0-2.1,0-2.7,0h-3.8c0,0-3.9,0-3.9,0-.7,0-1.5,0-2.6,0s-.2-.1-.2-.4,0-.4.2-.4c1.7,0,2.9-.3,3.4-.9.6-.6.8-1.9.8-3.9V14.2c0-1.7-.2-2.9-.5-3.6-.3-.7-.9-1.1-1.7-1.1s-1.7.3-3.1,1h0c-.2,0-.3-.1-.5-.4-.1-.2,0-.4.1-.5l9.2-4.4h.2c.2,0,.3,0,.5.2.1.1.2.3.2.4v28.3c3.4-4,7-6,10.8-6s4.5.7,6,2.2c1.4,1.5,2.1,3.6,2.1,6.4v13.5c0,2,.3,3.3.8,3.9.6.6,1.7.9,3.5.9s.2.1.2.4Z"/>
    <path class="st0" d="M492.9,51.9c.1,0,.3,0,.4.2.1.2.1.3,0,.5-3.1,2.8-6.6,4.2-10.4,4.2s-5.1-.6-7.1-1.9-3.5-2.9-4.5-5c-1-2.1-1.5-4.3-1.5-6.7s.7-5.3,2-7.6c1.3-2.3,3.1-4.1,5.4-5.4,2.3-1.3,4.8-2,7.6-2s4.8.7,6.2,2.1c1.4,1.4,2.1,3.3,2.1,5.9s-.3,1.9-.8,1.9h-17.3c0,1.1-.1,1.9-.1,2.4,0,4.1,1,7.3,2.9,9.8,1.9,2.5,4.6,3.7,8.1,3.7s2.6-.2,3.5-.5c1-.3,2.1-.9,3.4-1.7h0ZM477.7,31.7c-1.3,1.3-2.1,3.2-2.5,5.6l12.7-.3c0-2.4-.5-4.2-1.4-5.4-1-1.2-2.3-1.9-4-1.9s-3.6.7-4.8,2Z"/>
  </g>
</svg>